<?xml version="1.0" encoding="utf-8"?>
<!-- Generator: Adobe Illustrator 26.1.0, SVG Export Plug-In . SVG Version: 6.00 Build 0)  -->
<svg version="1.1" id="Layer_1" xmlns="http://www.w3.org/2000/svg" xmlns:xlink="http://www.w3.org/1999/xlink" x="0px" y="0px"
	 viewBox="0 0 256 256" style="enable-background:new 0 0 256 256;" xml:space="preserve">
<style type="text/css">
	.st0{fill:#493590;}
	.st1{fill:#FFFFFF;}
</style>
<path class="st0" d="M213.3,245.7H42.7c-17.9,0-32.4-14.5-32.4-32.4V42.7c0-17.9,14.5-32.4,32.4-32.4h170.6
	c17.9,0,32.4,14.5,32.4,32.4v170.6C245.7,231.2,231.2,245.7,213.3,245.7z"/>
<g>
	<image style="overflow:visible;" width="242" height="220" xlink:href="D2343895.png"  transform="matrix(1 0 0 1 10 24)">
	</image>
</g>
<path class="st1" d="M51.3,183.5c6.1,9.9,14.7,15.4,20.6,18.4c17.5-29.5,48.6-44.7,76.3-38.6c21,4.7,33.4,20.2,37.7,26.1
	c7.9-7.7,15.7-15.4,23.6-23.1c1.1-31.4,2.3-62.9,3.4-94.3c-15.7-15.5-38.2-21.7-58.7-15.9c-24.6,7-42.4,30.3-43.3,57.4
	c-2.3-1.2-26.8-13.8-47.1-2.1C40.3,125,37.8,161.7,51.3,183.5z"/>
</svg>
