<?xml version="1.0" encoding="utf-8"?>
<!-- Generator: Adobe Illustrator 26.1.0, SVG Export Plug-In . SVG Version: 6.00 Build 0)  -->
<svg version="1.1" id="Layer_1" xmlns="http://www.w3.org/2000/svg" xmlns:xlink="http://www.w3.org/1999/xlink" x="0px" y="0px"
	 viewBox="0 0 256 256" style="enable-background:new 0 0 256 256;" xml:space="preserve">
<style type="text/css">
	.st0{fill:#195ABD;}
	.st1{fill:#4CB2F1;}
</style>
<g>
	<path class="st0" d="M118.9,170.8l-22.8,22.8c-8.5,8.5-22.2,8.5-30.7,0l-49.9-49.9c-8.5-8.5-8.5-22.2,0-30.7l22.8-22.8
		c8.5-8.5,22.2-8.5,30.7,0l49.9,49.9C127.4,148.6,127.4,162.3,118.9,170.8z"/>
	<path class="st1" d="M90.3,218.4L60.9,189c-6.6-6.6-6.6-17.4,0-24L188.3,37.6c6.6-6.6,17.4-6.6,24,0L241.8,67
		c6.6,6.6,6.6,17.4,0,24L114.4,218.4C107.7,225.1,97,225.1,90.3,218.4z"/>
</g>
</svg>
