<?xml version="1.0" encoding="utf-8"?>
<!-- Generator: Adobe Illustrator 26.1.0, SVG Export Plug-In . SVG Version: 6.00 Build 0)  -->
<svg version="1.1" id="Layer_1" xmlns="http://www.w3.org/2000/svg" xmlns:xlink="http://www.w3.org/1999/xlink" x="0px" y="0px"
	 viewBox="0 0 256 256" style="enable-background:new 0 0 256 256;" xml:space="preserve">
<style type="text/css">
	.st0{fill:#FFFFFF;}
</style>
<g transform="translate(1.4065934065934016 1.4065934065934016) scale(2.81 2.81)">
	<path class="st0" d="M52.1,90H37.9c-2.9,0-5.2-2.3-5.2-5.2v-2.1c0-0.3-0.2-0.6-0.5-0.7c-1.5-0.5-3-1.1-4.4-1.8
		c-0.2-0.1-0.6,0-0.8,0.2l-1.5,1.5c-1,1-2.3,1.5-3.7,1.5s-2.7-0.5-3.7-1.5l-10-10c-2-2-2-5.3,0-7.4l1.5-1.5c0.2-0.2,0.3-0.6,0.2-0.8
		c-0.7-1.4-1.3-2.9-1.8-4.4c-0.1-0.3-0.4-0.5-0.7-0.5H5.2C2.3,57.3,0,55,0,52.1V37.9c0-2.9,2.3-5.2,5.2-5.2h2.1
		c0.3,0,0.6-0.2,0.7-0.5c0.5-1.5,1.1-3,1.8-4.4c0.1-0.2,0-0.6-0.2-0.8l-1.5-1.5c-2-2-2-5.3,0-7.4l10-10c1-1,2.3-1.5,3.7-1.5
		s2.7,0.5,3.7,1.5l1.5,1.5c0.2,0.2,0.6,0.3,0.8,0.2c1.4-0.7,2.9-1.3,4.4-1.8c0.3-0.1,0.5-0.4,0.5-0.7V5.2C32.7,2.3,35,0,37.9,0h14.2
		c2.9,0,5.2,2.3,5.2,5.2v2.1c0,0.3,0.2,0.6,0.5,0.7c1.5,0.5,3,1.1,4.4,1.8c0.2,0.1,0.6,0,0.8-0.2l1.5-1.5c2-2,5.3-2,7.4,0l10,10
		c2,2,2,5.3,0,7.4l-1.5,1.5c-0.2,0.2-0.3,0.6-0.2,0.8c0.7,1.4,1.3,2.9,1.8,4.4c0.1,0.3,0.4,0.5,0.7,0.5h2.1c2.9,0,5.2,2.3,5.2,5.2
		v14.2c0,2.9-2.3,5.2-5.2,5.2h-2.1c-0.3,0-0.6,0.2-0.7,0.5c-0.5,1.5-1.1,3-1.8,4.4c-0.1,0.2,0,0.6,0.2,0.8l1.5,1.5c2,2,2,5.3,0,7.4
		l-10,10c-1,1-2.3,1.5-3.7,1.5c-1.4,0-2.7-0.5-3.7-1.5l-1.5-1.5c-0.2-0.2-0.6-0.3-0.8-0.2c-1.4,0.7-2.9,1.3-4.4,1.8
		c-0.3,0.1-0.5,0.4-0.5,0.7v2.1C57.3,87.7,55,90,52.1,90z M39.7,83h10.6v-0.3c0-3.3,2.1-6.3,5.2-7.3c1.2-0.4,2.4-0.9,3.6-1.5
		c2.9-1.4,6.5-0.8,8.8,1.5l0.2,0.2l7.5-7.5l-0.2-0.2c-2.3-2.3-3-5.9-1.5-8.8c0.6-1.2,1.1-2.4,1.5-3.6c1.1-3.1,4-5.2,7.3-5.2H83V39.7
		h-0.3c-3.3,0-6.3-2.1-7.3-5.2c-0.4-1.2-0.9-2.4-1.5-3.6c-1.4-2.9-0.8-6.5,1.5-8.8l0.2-0.2l-7.5-7.5l-0.2,0.2
		c-2.3,2.3-5.9,3-8.8,1.5c-1.2-0.6-2.4-1.1-3.6-1.5c-3.1-1.1-5.2-4-5.2-7.3V7H39.7v0.3c0,3.3-2.1,6.3-5.2,7.3
		c-1.2,0.4-2.4,0.9-3.6,1.5c-2.9,1.4-6.5,0.8-8.8-1.5l-0.2-0.2l-7.5,7.5l0.2,0.2c2.3,2.3,3,5.9,1.5,8.8c-0.6,1.2-1.1,2.4-1.5,3.6
		c-1.1,3.1-4,5.2-7.3,5.2H7v10.6h0.3c3.3,0,6.3,2.1,7.3,5.2c0.4,1.2,0.9,2.4,1.5,3.6c1.4,2.9,0.8,6.5-1.5,8.8l-0.2,0.2l7.5,7.5
		l0.2-0.2c2.3-2.3,5.9-3,8.8-1.5c1.2,0.6,2.4,1.1,3.6,1.5c3.1,1.1,5.2,4,5.2,7.3L39.7,83L39.7,83z M45,70.4c-6.7,0-13.2-2.7-18-7.4
		c-5.3-5.3-7.9-12.6-7.4-20c1-12.3,11-22.3,23.3-23.3c7.5-0.6,14.8,2.1,20,7.4c5.3,5.3,7.9,12.6,7.4,20c-1,12.3-11,22.3-23.3,23.3
		l0,0C46.4,70.4,45.7,70.4,45,70.4z M45,26.6c-0.5,0-1,0-1.5,0.1c-8.9,0.7-16.1,7.9-16.8,16.8C26.2,48.9,28.2,54.2,32,58
		s9.1,5.8,14.5,5.3l0,0c8.9-0.7,16.1-7.9,16.8-16.8c0.4-5.4-1.5-10.7-5.3-14.5C54.5,28.5,49.9,26.6,45,26.6z"/>
</g>
</svg>
